<svg xmlns="http://www.w3.org/2000/svg" viewBox="0 0 780 290" width="780" height="290" font-family="Inter, Roboto, sans-serif">
  <rect width="780" height="290" fill="#001E2B"/>
  <text x="390" y="34" text-anchor="middle" font-size="17" font-weight="700" fill="#00ED64">explain("executionStats") — Campos Clave</text>

  <!-- Left: code output -->
  <rect x="22" y="52" width="400" height="205" rx="6" fill="#023430"/>
  <text x="42" y="74" font-size="12" font-weight="600" fill="#94a3b8">Resultado simplificado:</text>
  <rect x="32" y="80" width="382" height="168" rx="4" fill="#001E2B"/>
  <text x="42" y="100" font-size="11" fill="#e2e8f0">{</text>
  <text x="52" y="115" font-size="11" fill="#60a5fa">  executionStats: {</text>
  <text x="66" y="130" font-size="11" fill="#fbbf24">    nReturned: 3,</text>
  <text x="66" y="145" font-size="11" fill="#fbbf24">    totalKeysExamined: 3,</text>
  <text x="66" y="160" font-size="11" fill="#fbbf24">    totalDocsExamined: 3,</text>
  <text x="66" y="175" font-size="11" fill="#fbbf24">    executionTimeMillis: 0</text>
  <text x="52" y="190" font-size="11" fill="#60a5fa">  },</text>
  <text x="52" y="205" font-size="11" fill="#60a5fa">  queryPlanner: {</text>
  <text x="66" y="220" font-size="11" fill="#00ED64">    winningPlan: { stage: "IXSCAN" }</text>
  <text x="52" y="235" font-size="11" fill="#60a5fa">  }</text>
  <text x="42" y="250" font-size="11" fill="#e2e8f0">}</text>

  <!-- Right: annotations -->
  <rect x="442" y="52" width="316" height="205" rx="6" fill="#023430"/>
  <text x="600" y="72" text-anchor="middle" font-size="12" font-weight="600" fill="#94a3b8">Interpretación</text>

  <rect x="452" y="80" width="296" height="30" rx="3" fill="#001E2B"/>
  <text x="600" y="97" text-anchor="middle" font-size="11" fill="#fbbf24">nReturned</text>
  <text x="600" y="110" text-anchor="middle" font-size="10" fill="#94a3b8">Documentos devueltos al cliente</text>

  <rect x="452" y="118" width="296" height="30" rx="3" fill="#001E2B"/>
  <text x="600" y="135" text-anchor="middle" font-size="11" fill="#fbbf24">totalKeysExamined</text>
  <text x="600" y="148" text-anchor="middle" font-size="10" fill="#94a3b8">Entradas de índice recorridas</text>

  <rect x="452" y="156" width="296" height="30" rx="3" fill="#001E2B"/>
  <text x="600" y="173" text-anchor="middle" font-size="11" fill="#fbbf24">totalDocsExamined</text>
  <text x="600" y="186" text-anchor="middle" font-size="10" fill="#94a3b8">Docs leídos del disco ← clave de perf</text>

  <rect x="452" y="194" width="296" height="30" rx="3" fill="#001E2B"/>
  <text x="600" y="211" text-anchor="middle" font-size="11" fill="#00ED64">stage: "IXSCAN"</text>
  <text x="600" y="224" text-anchor="middle" font-size="10" fill="#94a3b8">IXSCAN = usa índice ✅ / COLLSCAN ❌</text>

  <rect x="452" y="232" width="296" height="22" rx="3" fill="#001E2B"/>
  <text x="600" y="248" text-anchor="middle" font-size="11" fill="#fbbf24">executionTimeMillis</text>

  <!-- Bottom rule -->
  <rect x="22" y="268" width="736" height="16" rx="3" fill="#023430"/>
  <text x="390" y="280" text-anchor="middle" font-size="10" fill="#94a3b8">Ideal: totalDocsExamined ≈ nReturned · Si totalDocsExamined &gt;&gt; nReturned → crear índice</text>
</svg>
